<svg width="440" height="435" viewBox="0 0 440 435" fill="none" xmlns="http://www.w3.org/2000/svg">
<path d="M335.185 11C340.75 11 354.153 11.8641 361.249 14.0811C372.411 17.5681 377.056 21.2331 383.293 26.5944C396.136 37.6338 401.021 44.091 407.961 54.1767C413.63 62.413 418.599 73.1466 425.95 91.8734C428.008 97.1156 427.937 105.82 428.011 116.941C428.123 133.822 428.09 157.848 426.352 163.852C423.262 174.524 417.749 189.112 413.876 200.603C412.216 205.529 409.964 211.568 407.638 220.9C405.543 229.303 403.277 233.906 401.067 238.478C398.471 243.849 396.25 248.199 389.995 256.15C384.302 263.388 381.641 267.433 377.048 272.638C373.519 276.637 368.848 281.729 360.559 289.849C349.968 300.225 345.83 305.34 342.799 310.156C339.386 315.579 336.299 321.517 329.351 332.03C324.859 338.826 315.554 349.176 308.921 356.013C305.492 359.547 300.821 362.576 294.763 366.616C289.023 370.444 279.083 370.796 273.753 371.579C267.843 372.447 268.613 384.284 266.027 388.926C263.206 393.988 257.301 398.223 251.899 402.514C247.277 406.186 242.455 408.934 238.375 412.197C233.899 415.775 228.922 416.744 223.456 418.254C218.41 419.59 214.133 420.532 211.375 421.155C210.057 421.562 208.905 422.156 205.401 423.788" stroke="black" stroke-width="22" stroke-linecap="round"/>
<path d="M205.401 423.789C205.313 423.789 205.224 423.789 193.008 423.789C180.792 423.789 156.452 423.789 141.977 423.524C118.131 423.089 106.475 417.634 87.438 407.71C74.1167 400.764 67.0954 393.099 63.4097 390.581C57.1717 386.318 50.2355 380.093 41.5578 369.766C27.4124 352.932 20.4781 337.796 18.4374 331.904C17.3358 328.723 16.5743 325.001 15.852 312.969C15.1297 300.937 14.5907 280.667 14.417 268.375C14.1144 246.966 15.388 241.071 16.9459 232.484C17.7395 229.721 18.9528 226.495 20.1762 223.596C21.3996 220.697 22.5963 218.222 25.7498 214.929" stroke="black" stroke-width="22" stroke-linecap="round"/>
<path d="M25.7498 214.929C25.7498 214.839 25.7498 212.906 26.1938 208.418C26.7857 202.438 34.4414 185.36 47.397 159.006C53.7132 146.158 62.0808 135.725 75.064 122.18C88.0473 108.635 106.051 92.6394 119.278 80.6132C132.504 68.587 140.407 61.0151 147.377 55.2282C154.348 49.4414 160.147 45.669 172.276 40.1376C184.406 34.6063 202.692 27.4303 216.04 22.7784C237.003 15.4733 248.498 13.8417 261.244 12.7976C286.722 10.7104 308.046 11.4641 316.014 13.2133C320.293 14.2565 322.755 15.1489 326.043 16.0016C328.085 16.3095 330.883 16.3636 334.035 17.3044" stroke="black" stroke-width="22" stroke-linecap="round"/>
<path d="M341.375 25.6064C341.375 28.2288 342.381 36.8901 344.846 41.8544C350.184 52.6039 356.822 70.2755 359.256 79.5386C361.833 89.3517 357.434 94.7816 354.842 99.0389C351.585 104.388 339.922 110.43 331.89 115.497C322.626 121.341 311.547 126.132 298.334 132.377C290.721 135.974 285.689 138.782 278.583 143.403C272.675 147.245 268.852 151.032 264.397 154.741C258.334 159.787 252.507 167.853 247.676 173.963C243.279 179.525 239.454 185.333 235.105 190.27C230.102 195.95 223.295 204.122 215.712 215.366C205.801 230.063 204.282 251.487 202.865 261.128C200.803 275.15 203.727 280.505 205.759 290.99C206.606 294.361 207.801 298.102 209.089 301.355C210.377 304.608 211.721 307.261 213.106 310.568" stroke="black" stroke-width="22" stroke-linecap="round"/>
<path d="M203.545 254.605C202.329 255.233 198.614 258.838 194.128 266.718C185.466 281.932 180.284 291.483 173.029 301.62C163.572 314.834 146.771 331.316 141.932 335.985C130.962 346.568 122.876 349.068 117.363 351.357C104.039 356.889 87.3728 352.871 80.3157 350.202C74.8596 347.288 71.1304 344.538 68.9727 342.494C67.9952 341.503 67.256 340.608 66.4945 339.685" stroke="black" stroke-width="22" stroke-linecap="round"/>
<path d="M330.125 117.91C328.98 118.332 322.084 123.181 316.843 128.195C311.36 133.44 305.67 141.991 302.16 145.594C298.752 149.092 294.632 152.357 291.262 155.239C288.041 157.994 284.222 160.947 280.107 163.896C274.985 167.566 271.35 170.576 268.489 173.906C265.266 177.659 261.821 181.608 255.344 188.527C249.353 194.927 243.274 202.33 239.548 207.087C234.465 213.579 226.547 223.364 220.468 232.712C215.403 240.5 211.391 256.954 208.942 268.075C208.777 277.866 209.294 287.861 210.245 295.065C210.555 296.158 210.89 297.26 211.502 301.47" stroke="black" stroke-width="22" stroke-linecap="round"/>
<path d="M196.534 292.434C195.688 293.722 192.838 297.86 189.369 303.674C182.763 314.743 179.582 319.99 176.154 323.665C170.813 329.39 161.076 334.681 152.636 340.889C146.87 345.13 141.437 348.843 135.595 352.341C130.638 355.309 121.376 355.639 111.507 356.191C92.3125 357.266 87.3422 354.139 83.2723 351.727C79.2438 349.34 75.9746 346.486 72.7381 343.504C71.9137 342.762 71.0483 342.072 70.1391 341.445C69.2299 340.817 68.3033 340.273 67.3485 339.712" stroke="black" stroke-width="22" stroke-linecap="round"/>
<path d="M299.332 132.867C297.751 132.867 291.398 134.465 284.754 138.599C273.867 145.375 263.804 157.794 256.515 167.012C247.449 178.478 232.958 195.473 226.83 203.333C223.262 207.908 218.318 216.99 211.589 229.259C205.526 240.313 201.411 245.496 198.498 249.714C195.613 253.893 193.271 259.241 190.938 263.056C187.993 267.87 184.766 273.743 182.065 277.963C176.937 285.976 171.021 293.96 166.397 299.94C162.817 304.568 159.159 308.105 156.225 311.544C153.165 315.131 148.362 322.139 144.093 328.287C139.883 334.349 130.091 337.426 120.621 342.272C115.45 344.918 110.981 345.658 106.322 346.696C102.009 347.657 96.5873 347.98 81.5841 348.062C77.3888 347.336 75.4403 346.144 73.7153 344.654C72.8757 343.826 72.1088 342.848 69.7815 340.276" stroke="black" stroke-width="22" stroke-linecap="round"/>
<path d="M343.282 104.54C343.709 103.307 347.916 95.2265 350.812 89.3457C353.583 83.7173 351.107 74.7828 350.294 70.3036C349.181 64.1755 346.966 59.323 345.413 54.5979C343.595 49.0637 340.447 42.3789 339.381 37.6163C338.809 33.0962 338.314 29.836 337.991 26.5459C337.847 24.3157 337.742 20.9472 337.633 17.4766" stroke="black" stroke-width="22" stroke-linecap="round"/>
<path d="M19.63 212.593C19.8177 211.549 21.2612 208.102 23.5488 203.403C25.9272 198.518 25.8393 194.68 27.4417 190.27C28.954 186.107 31.2797 183.458 33.5478 179.04C35.4916 175.253 37.8443 171.193 39.5804 168.224C41.2776 165.321 42.9641 162.371 44.9016 158.534C46.6257 155.12 49.2498 151.898 51.2765 149.128C53.7448 146.252 56.2656 143.699 57.6462 142.155C58.4341 141.282 59.3991 140.227 61.6272 137.676" stroke="black" stroke-width="22" stroke-linecap="round"/>
<path d="M11.0778 263.375C11.0778 260.642 11.2234 253.311 11.539 246.23C11.7531 241.425 12.9598 236.437 13.801 231.771C14.6639 226.985 15.4603 223.423 16.4049 219.283C17.5341 214.334 19.7033 211.255 21.8015 207.017C25.072 200.411 27.7202 195.535 29.9232 190.452C30.595 189.106 31.6185 187.438 32.4985 186.058C33.3786 184.678 34.0841 183.636 36.4395 181.111" stroke="black" stroke-width="22" stroke-linecap="round"/>
<path d="M11 260.423C11 262.362 11.3651 267.669 12.1207 270.848C12.9527 274.348 12.8831 278.388 13.9259 281.934C14.8725 284.803 15.529 287.357 15.7001 290.744C15.78 293.283 15.8456 297.488 15.9132 301.82" stroke="black" stroke-width="22" stroke-linecap="round"/>
</svg>
